<?xml version="1.0" standalone="no"?><!DOCTYPE svg PUBLIC "-//W3C//DTD SVG 1.1//EN" "http://www.w3.org/Graphics/SVG/1.1/DTD/svg11.dtd"><svg t="1600583822221" class="icon" viewBox="0 0 1024 1024" version="1.1" xmlns="http://www.w3.org/2000/svg" p-id="9176" xmlns:xlink="http://www.w3.org/1999/xlink" width="200" height="200"><defs><style type="text/css"></style></defs><path d="M282.88 270.08a471.5776 471.5776 0 0 0-201.6768 45.0048A471.552 471.552 0 0 0 38.4 512c0 261.5552 212.0448 473.6 473.6 473.6a471.5776 471.5776 0 0 0 201.6768-45.0048 471.552 471.552 0 0 0 42.8032-196.9152c0-261.5552-212.0448-473.6-473.6-473.6z" fill="#EE7C3D" p-id="9177"></path><path d="M512 38.4C250.4448 38.4 38.4 250.4448 38.4 512s212.0448 473.6 473.6 473.6 473.6-212.0448 473.6-473.6S773.5552 38.4 512 38.4z m276.9664 750.5664A391.68 391.68 0 0 1 235.0336 235.0336a391.68 391.68 0 0 1 553.9328 553.9328z" fill="#333333" p-id="9178"></path><path d="M681.7536 262.8864a40.96 40.96 0 0 0-57.9072 0L512 374.7072l-111.8464-111.8208a40.96 40.96 0 0 0-57.9072 57.9072L454.0672 432.64H371.2a40.96 40.96 0 0 0 0 81.92h99.84v64h-99.84a40.96 40.96 0 0 0 0 81.92h99.84v112.64a40.96 40.96 0 0 0 81.92 0v-112.64h99.84a40.96 40.96 0 0 0 0-81.92h-99.84v-64h99.84a40.96 40.96 0 0 0 0-81.92h-82.8672l111.8208-111.8464a40.96 40.96 0 0 0 0-57.9072z" fill="#333333" p-id="9179"></path></svg>