<?xml version="1.0" standalone="no"?><!DOCTYPE svg PUBLIC "-//W3C//DTD SVG 1.1//EN" "http://www.w3.org/Graphics/SVG/1.1/DTD/svg11.dtd"><svg t="1600583741439" class="icon" viewBox="0 0 1331 1024" version="1.1" xmlns="http://www.w3.org/2000/svg" p-id="7603" xmlns:xlink="http://www.w3.org/1999/xlink" width="259.9609375" height="200"><defs><style type="text/css"></style></defs><path d="M1204.375793 1023.998976H126.82221a127.846208 127.846208 0 0 1-89.702266-36.351945 124.159814 124.159814 0 0 1-27.135959-39.475141A121.395018 121.395018 0 0 1 0 899.839162V124.160326c0-16.742375 3.379195-33.02395 9.983985-48.332728C16.383975 61.03082 25.497562 47.77004 37.119944 36.352457A127.846208 127.846208 0 0 1 126.82221 0.000512h1077.553583a127.846208 127.846208 0 0 1 89.651066 36.351945c11.673582 11.417583 20.787169 24.678363 27.187159 39.475141 6.60479 15.308777 9.983985 31.590353 9.983985 48.332728v775.678836c0 16.742375-3.379195 33.02395-9.983985 48.332728a126.61741 126.61741 0 0 1-67.481499 66.047901c-15.615977 6.50239-32.255952 9.779185-49.356726 9.779185zM126.82221 62.157219c-34.918348 0-63.334305 27.801558-63.334305 62.003107v775.678836c0 34.201549 28.415957 62.003107 63.334305 62.003107h1077.553583c34.918348 0 63.334305-27.801558 63.334305-62.003107V124.160326c0-34.201549-28.415957-62.003107-63.334305-62.003107H126.82221zM31.743952 278.323295h1267.710099v63.999904H31.743952v-63.999904z m1173.65584 622.539866h-413.08098v-250.265225h413.08098v250.265225z m-349.593076-62.156707h286.105171v-125.951811h-286.105171v125.951811z" fill="" p-id="7604"></path></svg>