<?xml version="1.0" standalone="no"?><!DOCTYPE svg PUBLIC "-//W3C//DTD SVG 1.1//EN" "http://www.w3.org/Graphics/SVG/1.1/DTD/svg11.dtd"><svg t="1600583864232" class="icon" viewBox="0 0 1024 1024" version="1.1" xmlns="http://www.w3.org/2000/svg" p-id="10928" xmlns:xlink="http://www.w3.org/1999/xlink" width="200" height="200"><defs><style type="text/css"></style></defs><path d="M633.250909 302.545455H390.749091A46.545455 46.545455 0 0 0 349.090909 328.145455C302.545455 423.796364 186.181818 571.112727 186.181818 674.909091c0 179.898182 145.92 279.272727 325.818182 279.272727s325.818182-99.374545 325.818182-279.272727c0-103.796364-116.363636-251.112727-162.909091-346.763636a46.545455 46.545455 0 0 0-41.658182-25.6z m-3.258182 302.545454h-73.076363a21.643636 21.643636 0 0 0-21.643637 21.643636v26.53091a21.643636 21.643636 0 0 0 21.643637 21.643636h73.076363a21.643636 21.643636 0 0 1 21.643637 21.643636v3.258182a21.643636 21.643636 0 0 1-21.643637 21.643636h-73.076363a21.643636 21.643636 0 0 0-21.643637 21.643637v49.803636a21.643636 21.643636 0 0 1-21.643636 21.643637h-3.258182a21.643636 21.643636 0 0 1-21.643636-21.643637v-49.803636a21.643636 21.643636 0 0 0-21.643637-21.643637h-73.076363a21.643636 21.643636 0 0 1-21.643637-21.643636v-3.258182a21.643636 21.643636 0 0 1 21.643637-21.643636h73.076363a21.643636 21.643636 0 0 0 21.643637-21.643636v-26.53091a21.643636 21.643636 0 0 0-21.643637-21.643636h-73.076363a21.643636 21.643636 0 0 1-21.643637-21.643636v-3.258182a21.643636 21.643636 0 0 1 21.643637-21.643636h16.290909a21.643636 21.643636 0 0 0 20.014545-29.556364l-23.272727-57.250909a21.643636 21.643636 0 0 1 20.48-29.556364 21.410909 21.410909 0 0 1 20.014545 13.498182l35.84 89.367273a21.410909 21.410909 0 0 0 20.014546 13.498182h17.221818a21.410909 21.410909 0 0 0 20.014546-13.498182l35.84-89.367273a21.410909 21.410909 0 0 1 20.014545-13.498182 21.643636 21.643636 0 0 1 20.014545 29.556364l-23.272727 57.250909a21.643636 21.643636 0 0 0 20.48 29.556364h16.290909a21.643636 21.643636 0 0 1 21.643637 21.643636v3.258182a21.643636 21.643636 0 0 1-21.643637 21.643636zM299.985455 178.269091A46.545455 46.545455 0 0 1 279.272727 139.636364a46.545455 46.545455 0 0 1 91.694546-10.938182l43.752727-43.752727a46.545455 46.545455 0 0 1 65.861818 0L512 116.363636l31.418182-31.418181a46.545455 46.545455 0 0 1 65.861818 0l43.752727 43.752727A46.545455 46.545455 0 0 1 744.727273 139.636364a46.545455 46.545455 0 0 1-20.712728 38.632727l-40.261818 57.716364a46.545455 46.545455 0 0 1-38.167272 20.014545H374.690909a46.545455 46.545455 0 0 1-39.330909-21.643636z" fill="#0000FF" p-id="10929"></path></svg>