<?xml version="1.0" standalone="no"?><!DOCTYPE svg PUBLIC "-//W3C//DTD SVG 1.1//EN" "http://www.w3.org/Graphics/SVG/1.1/DTD/svg11.dtd"><svg t="1600583792269" class="icon" viewBox="0 0 1024 1024" version="1.1" xmlns="http://www.w3.org/2000/svg" p-id="8401" xmlns:xlink="http://www.w3.org/1999/xlink" width="200" height="200"><defs><style type="text/css"></style></defs><path d="M790.755556 880.355556H298.666667c-44.088889 0-81.066667-36.977778-81.066667-81.066667V393.955556c0-44.088889 36.977778-81.066667 81.066667-81.066667h492.088889c44.088889 0 81.066667 36.977778 81.066666 81.066667v403.911111c0 45.511111-35.555556 82.488889-81.066666 82.488889zM298.666667 369.777778c-12.8 0-24.177778 11.377778-24.177778 24.177778v403.911111c0 12.8 11.377778 24.177778 24.177778 24.177777h492.088889c12.8 0 24.177778-11.377778 24.177777-24.177777V393.955556c0-12.8-11.377778-24.177778-24.177777-24.177778H298.666667z" fill="#3FA6AD" p-id="8402"></path><path d="M381.155556 573.155556m-25.6 0a25.6 25.6 0 1 0 51.2 0 25.6 25.6 0 1 0-51.2 0Z" fill="#DC4569" p-id="8403"></path><path d="M544.711111 573.155556m-25.6 0a25.6 25.6 0 1 0 51.2 0 25.6 25.6 0 1 0-51.2 0Z" fill="#DC4569" p-id="8404"></path><path d="M709.688889 573.155556m-25.6 0a25.6 25.6 0 1 0 51.2 0 25.6 25.6 0 1 0-51.2 0Z" fill="#DC4569" p-id="8405"></path><path d="M381.155556 709.688889m-25.6 0a25.6 25.6 0 1 0 51.2 0 25.6 25.6 0 1 0-51.2 0Z" fill="#DC4569" p-id="8406"></path><path d="M544.711111 709.688889m-25.6 0a25.6 25.6 0 1 0 51.2 0 25.6 25.6 0 1 0-51.2 0Z" fill="#DC4569" p-id="8407"></path><path d="M709.688889 709.688889m-25.6 0a25.6 25.6 0 1 0 51.2 0 25.6 25.6 0 1 0-51.2 0Z" fill="#DC4569" p-id="8408"></path><path d="M439.466667 449.422222c-15.644444 0-28.444444-12.8-28.444445-28.444444v-156.444445c0-15.644444 12.8-28.444444 28.444445-28.444444s28.444444 12.8 28.444444 28.444444v156.444445c0 15.644444-12.8 28.444444-28.444444 28.444444zM651.377778 449.422222c-15.644444 0-28.444444-12.8-28.444445-28.444444v-156.444445c0-15.644444 12.8-28.444444 28.444445-28.444444s28.444444 12.8 28.444444 28.444444v156.444445c0 15.644444-12.8 28.444444-28.444444 28.444444z" fill="#DC4569" p-id="8409"></path></svg>