<?xml version="1.0" standalone="no"?><!DOCTYPE svg PUBLIC "-//W3C//DTD SVG 1.1//EN" "http://www.w3.org/Graphics/SVG/1.1/DTD/svg11.dtd"><svg t="1600583916055" class="icon" viewBox="0 0 1024 1024" version="1.1" xmlns="http://www.w3.org/2000/svg" p-id="14509" xmlns:xlink="http://www.w3.org/1999/xlink" width="200" height="200"><defs><style type="text/css"></style></defs><path d="M507.229034 488.145169m-9.541932 0a9.541932 9.541932 0 1 0 19.083864 0 9.541932 9.541932 0 1 0-19.083864 0Z" fill="#99403D" p-id="14510"></path><path d="M124.547327 82.361942c150.159882 148.653261 300.319765 296.804316 450.479647 445.457577 21.092692 21.092692 42.185385 42.185385 63.780284 62.775871v-21.092693l-64.282491 64.282492 25.612555 10.546346c2.511035-25.612555-3.515449-53.736145-14.564002-76.837665-24.105934-49.718489-76.335459-67.295733-129.06719-66.29132 4.519863 2.511035 8.537518 5.02207 13.057382 7.533105C374.646395 379.166258 279.729279 250.099068 184.812163 120.529671c-13.559588-18.079451-26.616969-36.158901-40.176557-54.740559-11.55076-15.568416-37.665522-0.502207-26.114762 15.066209 58.256008 79.3487 116.009809 158.195194 174.265816 237.543894 37.665522 51.22511 75.331045 102.450221 112.49436 153.675331 10.546346 14.564002 21.594899 29.128004 32.141246 44.194213 2.008828 2.511035 3.515449 5.02207 5.524276 7.533105 11.048553 11.55076 25.110348 7.030897 40.176558 8.537518 58.256008 6.528691 91.903874 55.744973 86.881804 112.49436-1.506621 13.559588 17.075037 19.083865 25.612556 10.546346l64.282491-64.282491c5.524277-5.524277 6.026484-15.568416 0-21.092693-150.159882-148.653261-300.319765-296.804316-450.479647-445.457577-21.092692-21.092692-42.185385-42.185385-63.780284-62.77587-13.559588-14.061795-34.652281 7.030897-21.092693 20.590485z" fill="#20396C" p-id="14511"></path><path d="M824.121628 717.653752c-1.506621 65.789112-53.736145 120.529671-121.031878 121.031878-65.789112 0-121.031878-55.242766-121.031878-121.031878 0-65.789112 54.740559-121.031878 121.031878-121.031879 67.295733 0 119.525257 55.242766 121.031878 121.031879 0.502207 19.586072 30.634625 19.586072 30.132418 0-1.506621-62.273664-38.167729-118.018637-96.925944-141.120157-59.260422-22.599313-128.564983-4.519863-169.243747 43.692006-40.678764 48.714076-46.705248 120.529671-13.559588 175.27023 32.643453 53.736145 95.92153 81.357528 157.19078 70.308975 71.815596-13.057381 121.031878-76.837666 123.040706-148.151054 0-19.586072-30.132418-19.586072-30.634625 0z" fill="#20396C" p-id="14512"></path><path d="M818.095145 818.597352c8.035311-8.537518 16.57283-17.075037 24.608141-25.612556-8.035311-1.004414-15.568416-2.008828-23.603727-3.013241 22.097106 38.167729 44.194213 75.833252 65.789112 114.000981l20.590485-20.590486c-38.669936-21.092692-76.837666-41.683178-115.507601-62.775871 1.004414 8.035311 2.008828 15.568416 3.013241 23.603728 8.537518-8.537518 16.57283-17.075037 25.110349-25.612555 13.559588-14.061795-7.533104-35.154487-21.092693-21.092693-8.035311 8.537518-16.57283 17.075037-24.608141 25.612555-6.528691 6.528691-5.524277 19.083865 3.013242 23.603728 38.669936 21.092692 76.837666 41.683178 115.507601 62.77587 13.057381 7.030897 28.12359-7.533104 20.590486-20.590485-22.097106-38.167729-44.194213-75.833252-65.789112-114.000981-5.02207-8.537518-17.075037-10.044139-23.603728-3.013242-8.035311 8.537518-16.57283 17.075037-24.608141 25.612555-14.564002 13.559588 7.030897 35.154487 20.590486 21.092693zM593.608632 514.259931c92.908288-126.053948 185.31437-252.610103 278.222658-378.664051 13.057381-18.079451 26.114762-35.656694 39.67435-53.736145 11.55076-15.568416-14.564002-30.634625-26.114762-15.066209-92.908288 126.053948-185.31437 252.610103-278.222658 378.664051-13.057381 18.079451-26.114762 35.656694-39.67435 53.736145-11.55076 15.066209 14.564002 30.132418 26.114762 15.066209zM440.435508 500.198136c-23.603727 23.10152-46.705248 46.203041-70.308975 69.304561-6.026484 5.524277-5.524277 15.568416 0 21.092693l64.282491 64.282491c8.537518 8.537518 27.119176 3.013242 25.612555-10.546346-4.017656-43.189799 14.564002-85.877391 55.242766-104.459048 17.577244-8.035311 2.008828-34.150074-15.066209-26.114763-48.714076 23.10152-74.828838 77.842079-69.806768 130.573811l25.612555-10.546346L391.721432 569.502697v21.092693c23.603727-23.10152 46.705248-46.203041 70.308975-69.304561 13.057381-13.559588-8.035311-34.652281-21.594899-21.092693z" fill="#20396C" p-id="14513"></path><path d="M883.884257 61.26925c-110.485532 109.481118-220.971064 218.962236-331.958803 328.443354-16.070623 15.568416-31.639039 31.639039-47.709662 47.207455-13.559588 13.559588 7.533104 35.154487 21.092693 21.092692 110.485532-109.481118 221.473271-218.962236 331.958803-328.443354 16.070623-15.568416 31.639039-31.639039 47.709661-47.207455 14.061795-13.559588-7.030897-34.652281-21.092692-21.092692zM175.270231 717.653752c1.506621 62.273664 38.167729 118.018637 96.925944 141.120157 59.260422 22.599313 128.564983 4.519863 169.243747-43.692006 40.678764-48.714076 46.705248-120.529671 13.559588-175.270231-32.643453-53.736145-95.92153-81.357528-157.19078-70.308975-71.313389 13.057381-120.529671 76.837666-122.538499 148.151055-0.502207 19.586072 29.630211 19.586072 30.132417 0 1.506621-65.789112 53.736145-120.529671 121.031879-121.031879 65.789112 0 121.031878 55.242766 121.031878 121.031879C446.964198 783.442864 392.223639 838.68563 326.434527 838.68563c-67.295733 0-119.023051-54.740559-121.031879-121.031878-0.502207-19.586072-30.634625-19.586072-30.132417 0zM771.892104 717.653752c-1.506621 37.163315-30.132418 68.300147-68.300147 68.300147-37.163315 0-68.300147-31.136832-68.300147-68.300147 0-37.163315 31.136832-68.802354 68.300147-68.300147 38.669936 0 66.793526 30.634625 68.300147 68.300147 1.004414 19.083865 31.136832 19.586072 30.132418 0-2.008828-53.736145-43.189799-98.432565-98.432565-98.432565-53.233938 0-98.934772 45.198627-98.432565 98.432565 0 53.736145 44.69642 98.432565 98.432565 98.432565 55.242766 0 96.423737-45.198627 98.432565-98.432565 1.004414-19.586072-29.128004-19.586072-30.132418 0z" fill="#20396C" p-id="14514"></path><path d="M396.241295 717.653752c-1.506621 37.163315-30.132418 68.300147-68.300147 68.300147-37.163315 0-68.300147-31.136832-68.300148-68.300147 0-37.163315 31.136832-68.802354 68.300148-68.300147 38.669936 0 66.793526 30.634625 68.300147 68.300147 1.004414 19.083865 31.136832 19.586072 30.132418 0-2.008828-53.736145-43.189799-98.432565-98.432565-98.432565-53.233938 0-98.934772 45.198627-98.432565 98.432565 0 53.736145 44.69642 98.432565 98.432565 98.432565 55.242766 0 96.423737-45.198627 98.432565-98.432565 1.004414-19.586072-29.128004-19.586072-30.132418 0z" fill="#20396C" p-id="14515"></path></svg>