<?xml version="1.0" standalone="no"?><!DOCTYPE svg PUBLIC "-//W3C//DTD SVG 1.1//EN" "http://www.w3.org/Graphics/SVG/1.1/DTD/svg11.dtd"><svg t="1600583512257" class="icon" viewBox="0 0 1024 1024" version="1.1" xmlns="http://www.w3.org/2000/svg" p-id="3464" xmlns:xlink="http://www.w3.org/1999/xlink" width="200" height="200"><defs><style type="text/css"></style></defs><path d="M618.3 721.7v-305c0-38.6 31.3-69.9 69.9-69.9h129c38.6 0 69.9 31.3 69.9 69.9v305c0 38.6-31.3 69.9-69.9 69.9h-129c-38.6 0-69.9-31.8-69.9-69.9z" fill="#FFBA40" p-id="3465"></path><path d="M817.2 814.1h-129c-51.3 0-92.9-41.5-92.9-92.9V416.7c0-51.3 41.5-92.9 92.9-92.9h129c51.3 0 92.9 41.5 92.9 92.9v305c0 50.8-41.6 92.4-92.9 92.4z m-129-444.8c-25.9 0-46.9 21-46.9 46.9v305c0 25.9 21 46.9 46.9 46.9h129c25.9 0 46.9-21 46.9-46.9V416.7c0-25.9-21-46.9-46.9-46.9h-129v-0.5z" fill="#333333" p-id="3466"></path><path d="M295.3 923.6c-41.1 0-74.3-33.2-74.3-74.3V161.6c0-41.1 33.2-74.3 74.3-74.3h406.1c41.1 0 74.3 33.2 74.3 74.3v687.7c0 41.1-33.2 74.3-74.3 74.3H295.3z" fill="#FFBA40" p-id="3467"></path><path d="M701.4 109.8c28.3 0 51.8 23 51.8 51.8v687.7c0 28.3-23 51.8-51.8 51.8H295.3c-28.3 0-51.8-23-51.8-51.8V161.6c0-28.3 23-51.8 51.8-51.8h406.1m0-45.9H295.3c-53.8 0-97.3 43.5-97.3 97.3v687.7c0 53.8 43.5 97.3 97.3 97.3h406.1c53.8 0 97.3-43.5 97.3-97.3V161.6c0-53.7-43.5-97.7-97.3-97.7z" fill="#333333" p-id="3468"></path><path d="M336.3 759.3c-12.7 0-23-10.3-23-23V198.8c0-12.7 10.3-23 23-23h324c12.7 0 23 10.3 23 23v537.6c0 12.7-10.3 23-23 23h-324z" fill="#27C18F" p-id="3469"></path><path d="M660.3 198.8v537.6h-324V198.8h324m0-45.5h-324c-25.4 0-45.9 20.5-45.9 45.9v537.6c0 25.4 20.5 45.9 45.9 45.9h324c25.4 0 45.9-20.5 45.9-45.9V199.2c0.1-25.4-20.4-45.9-45.9-45.9z" fill="#333333" p-id="3470"></path><path d="M460.4 843.9h75.3" fill="#FFBA40" p-id="3471"></path><path d="M535.7 866.9h-75.3c-12.7 0-23-10.3-23-23s10.3-23 23-23h75.3c12.7 0 23 10.3 23 23s-10.3 23-23 23zM550.9 274c0 18.4 14.9 33.2 33.2 33.2 18.4 0 33.2-14.9 33.2-33.2s-14.9-33.2-33.2-33.2c-18.4 0-33.2 14.9-33.2 33.2z" fill="#333333" p-id="3472"></path><path d="M278.2 460.7h-68.9c-29.8 0-54.2-24.4-54.2-54.2 0-29.8 24.4-54.2 54.2-54.2h68.9c29.8 0 54.2 24.4 54.2 54.2 0 29.8-24.4 54.2-54.2 54.2z" fill="#FFBA40" p-id="3473"></path><path d="M278.2 483.7h-68.9c-42.5 0-77.2-34.7-77.2-77.2s34.7-77.2 77.2-77.2h68.9c42.5 0 77.2 34.7 77.2 77.2s-34.7 77.2-77.2 77.2z m-69-108c-17.1 0-31.3 14.2-31.3 31.3s14.2 31.3 31.3 31.3h68.9c17.1 0 31.3-14.2 31.3-31.3s-14.2-31.3-31.3-31.3h-68.9z" fill="#333333" p-id="3474"></path><path d="M741.5 460.7h-68.9c-29.8 0-54.2-24.4-54.2-54.2 0-29.8 24.4-54.2 54.2-54.2h68.9c29.8 0 54.2 24.4 54.2 54.2-0.5 29.8-24.9 54.2-54.2 54.2z" fill="#FFBA40" p-id="3475"></path><path d="M741.5 483.7h-68.9c-42.5 0-77.2-34.7-77.2-77.2s34.7-77.2 77.2-77.2h68.9c42.5 0 77.2 34.7 77.2 77.2s-35.2 77.2-77.2 77.2z m-68.9-108c-17.1 0-31.3 14.2-31.3 31.3s14.2 31.3 31.3 31.3h68.9c17.1 0 31.3-14.2 31.3-31.3s-14.2-31.3-31.3-31.3h-68.9z" fill="#333333" p-id="3476"></path><path d="M278.2 569.2h-68.9c-29.8 0-54.2-24.4-54.2-54.2 0-29.8 24.4-54.3 54.2-54.3h68.9c29.8 0 54.2 24.4 54.2 54.2 0 29.9-24.4 54.3-54.2 54.3z" fill="#FFBA40" p-id="3477"></path><path d="M278.2 591.7h-68.9c-42.5 0-77.2-34.7-77.2-77.2s34.7-77.2 77.2-77.2h68.9c42.5 0 77.2 34.7 77.2 77.2-0.5 43-34.7 77.2-77.2 77.2z m-69-108c-17.1 0-31.3 14.2-31.3 31.3s14.2 31.3 31.3 31.3h68.9c17.1 0 31.3-14.2 31.3-31.3s-14.2-31.3-31.3-31.3h-68.9z" fill="#333333" p-id="3478"></path><path d="M278.2 677.2h-68.9c-29.8 0-54.2-24.4-54.2-54.2s24.4-54.2 54.2-54.2h68.9c29.8 0 54.2 24.4 54.2 54.2s-24.4 54.2-54.2 54.2z" fill="#FFBA40" p-id="3479"></path><path d="M278.2 700.2h-68.9c-42.5 0-77.2-34.7-77.2-77.2s34.7-77.2 77.2-77.2h68.9c42.5 0 77.2 34.7 77.2 77.2-0.5 42.5-34.7 77.2-77.2 77.2z m-69-108.5c-17.1 0-31.3 14.2-31.3 31.3s14.2 31.3 31.3 31.3h68.9c17.1 0 31.3-14.2 31.3-31.3s-14.2-31.3-31.3-31.3h-68.9z" fill="#333333" p-id="3480"></path><path d="M278.2 785.2h-68.9c-29.8 0-54.2-24.4-54.2-54.2 0-29.8 24.4-54.3 54.2-54.3h68.9c29.8 0 54.2 24.4 54.2 54.3 0 29.8-24.4 54.2-54.2 54.2z" fill="#FFBA40" p-id="3481"></path><path d="M278.2 808.2h-68.9c-42.5 0-77.2-34.7-77.2-77.2s34.7-77.2 77.2-77.2h68.9c42.5 0 77.2 34.7 77.2 77.2s-34.7 77.2-77.2 77.2z m-69-108c-17.1 0-31.3 14.2-31.3 31.3s14.2 31.3 31.3 31.3h68.9c17.1 0 31.3-14.2 31.3-31.3s-14.2-31.3-31.3-31.3h-68.9z" fill="#333333" p-id="3482"></path></svg>